<?xml version="1.0" encoding="utf-8"?>
<!-- Generator: Adobe Illustrator 24.1.2, SVG Export Plug-In . SVG Version: 6.00 Build 0)  -->
<svg version="1.1" id="Layer_1" xmlns="http://www.w3.org/2000/svg" xmlns:xlink="http://www.w3.org/1999/xlink" x="0px" y="0px"
	 viewBox="0 0 16 16" style="enable-background:new 0 0 16 16;" xml:space="preserve">
<style type="text/css">
	.st0{fill:#CCCCCC;}
	.st1{fill:#707070;}
</style>
<path class="st0" d="M11.3,16H4.7C2.1,16,0,13.9,0,11.3V4.7C0,2.1,2.1,0,4.7,0h6.7C13.9,0,16,2.1,16,4.7v6.7
	C16,13.9,13.9,16,11.3,16z"/>
<g id="Layer_1_1_">
	<path class="st1" d="M11.4,5.3c0,1.9-1.5,3.4-3.4,3.4S4.6,7.2,4.6,5.3S6.1,1.9,8,1.9S11.4,3.5,11.4,5.3z"/>
	<path class="st1" d="M14.3,13.6L14.2,13c-0.1-0.5-0.6-1.5-0.6-1.5c-0.8-0.9-1.6-1.9-5.6-2c-4.1-0.1-5.2,1.5-5.7,2.4
		c-0.2,0.3-0.3,0.7-0.4,1l-0.2,0.8"/>
</g>
</svg>
