<?xml version="1.0" encoding="utf-8"?>
<!-- Generator: Adobe Illustrator 24.1.2, SVG Export Plug-In . SVG Version: 6.00 Build 0)  -->
<svg version="1.1" id="Layer_7" xmlns="http://www.w3.org/2000/svg" xmlns:xlink="http://www.w3.org/1999/xlink" x="0px" y="0px"
	 viewBox="0 0 379 379" style="enable-background:new 0 0 379 379;" xml:space="preserve">
<style type="text/css">
	.st0{fill:#FFFFFF;}
	.st1{enable-background:new    ;}
	.st2{fill:#A3E3DB;}
	.st3{fill:#43BBB3;}
	.st4{fill:#F3E38B;}
	.st5{fill:#030303;}
</style>
<g id="Layer_2">
	<circle class="st0" cx="191" cy="184.7" r="174.9"/>
</g>
<g id="Layer_5">
	<g class="st1">
		<path class="st2" d="M210.6,78.3c49,4.1,84.3,40.8,84.3,89.7c0,17.3-5,33.4-13.7,47c12-15.3,19.1-34.5,19.1-55.4
			c0-49.6-40.2-89.8-89.8-89.8c-33.6,0-61.3,16.8-80.1,48.9C148.3,93.3,180.9,75.8,210.6,78.3z"/>
	</g>
</g>
<g id="Layer_3">
	<g>
		<path class="st3" d="M216.2,297.4C135.2,298.3,65,225,64.1,145.3c-0.5-40.2,14.6-72.9,37.4-101.1C53.2,73,22.2,124.3,22.2,184.6
			c0,91.1,74.9,167.2,165.9,164.9c77.4-2,138.4-52.4,158.2-123.2C314.4,270.7,274.4,296.8,216.2,297.4z"/>
	</g>
</g>
<g id="Layer_4">
	<g class="st1">
		<path class="st4" d="M344.3,154c0-74-60-134-134-134C148.4,20,89.5,63.5,76.8,132.8c21.7-72.4,75-99.3,126.1-100.5
			c71.3-1.7,129.2,57.8,129.2,129.2c0,56.4-36.1,104.9-86.5,122.5C302.6,268.4,344.3,215.8,344.3,154z"/>
	</g>
</g>
<g id="Layer_6">
	<path class="st5" d="M103.1,246.2c3.8-4.9,7.7-8.2,7.7-8.2c2.6-4.5,5.3-9.4,8.4-16.9c6-14.3,5.5-14.1,6.3-17.7
		c0.3-1.6,1.1-4.6,1-7.9c0-1.7-0.1-3.7-0.1-3.7s0,0.1,0,0c0.1-0.1-4.3-2.3-5-3.3c-2-2.8-1.7-10.8-0.3-16.3c1.2-4.7,3.5-7.9,4.5-9.7
		c2.3-4.1,4.2-6.8,7.9-10c0.8-0.7,3.5-2,6.9-2c2.4,0,5.2,2.1,5.1,2.8c-0.1,0.5,0,0.1,0,0s4.4-1.2,7.7-1.8c2-0.3,7.1-1,13.5-0.3
		c3.8,0.5,9.3,1.1,15.3,4.6c4.6,2.7,7.7,5.9,11.2,9.7c1.7,1.8,2.7,2.9,3.8,4.6c1.1,1.7,1.1,2.2,2,3.1c1.1,1.1,2.3,1.5,5.1,2.6
		c5.7,2.1,5.3,2,5.6,2c5.6,1.6,6.8,2,10.5,2.8c0.9,0.2,1.7,1.3,2.3,2.6c1,2.2,0.6,4.6-0.8,7.9c-3.2,8-8.1,13.1-9.2,14.3
		c-3.4,3.5-6.2,5.5-8.7,6.6c-1.7,0.8-8,1.7-10.7,0.3c-3.2-1.7-4.9-2.7-7.1-4.1c-1.6-1-2-1.8-2.8-2.6c-0.1-0.1-2-2.8-2-2.8l0,0
		c0.2,0.5,0,0,0,0c-0.1-0.1,0,4.8,2.3,10c1,2.2,2.1,4.6,4.3,6.9c0.9,0.9,2.1,1.9,3.3,3.8c0.9,1.5,1.3,2.7,1.5,3.3
		c2.2,6.5,3.4,7,4.6,11.7c1.3,5.2,1.6,10.9,1,14.6c-0.3,1.7-0.4,6.5-0.4,6.5s1.4-0.1,2.7,0.1c0.7,0.1,3.1,0.5,6.9-0.5
		c2-0.5,3-0.8,4.1-1.5c2.4-1.5,2.1-2.9,4.6-5.6c2-2.2,2.5-1.6,5.1-4.1c2.6-2.4,4-4.8,4.3-5.4c2.4-4.1,1.4-5.2,3.6-7.9
		c1.5-1.9,3.2-2.8,6.1-4.3c4.2-2.2,4.1-1.2,7.5-3c2.7-1.4,5.3-3.5,9.1-7c4-3.6,6.9-5.4,6.9-5.4c0.7,0.3,0.7,1.7,0.8,3.3
		c0,1.4,0,3.8,0,3.8l4.9,0.5l-2.6,4.9c0,0,1,2.5,1.7,5.3c0.4,1.6,0.9,3.1,1.7,4.5c2.3,4.2,3.5,5.2,3.5,5.2c0,0.4-0.5,4.9-0.5,5.6
		c0,1.4-0.3,2.3,0,3.6c0.1,0.5,0.4,1.6,1.3,2.6c1.2,1.3,2.3,1.8,2.3,1.8c0.1,0.6-1,3.9-3.2,6.6c-2,2.5-3.5,3.3-4.6,3.8
		c-2.7,1.2-3.8-0.2-7.8,0.6c-1.3,0.3-3.7,0.3-5.6,2.7c-1.4,1.7-2.3,3.5-2.3,5.9c-0.1,8.8-3.9,15.7-4.3,15.6c-0.2,0,0.2-0.3,0,0l0,0
		c2,0.1,3.6,3.8,4.3,5.1c0.8,1.5,0.7,2.6,0.8,4.9c0.3,6.4,1,10.2,0.4,11c-2,2.4-5.2,1.5-5.6,1.7c-0.3,0.1-1.8-1-2.7-2.4
		c-0.7-1.2-1.4-2.9-1.8-4.9c-0.3-1.8-0.5-6-0.5-6s-1.5-0.3-3.4-0.6c-4.1-0.6-3.2-1.2-5.7-1.3c-4.1-0.1-10.5,1.2-12.3,1.1
		c-6.9-0.1-13.3-0.2-20.6-1c-13.4-1.5-15.4-2.4-19-3.6c-0.6-0.2-9.1-2.6-9.1-2.6s-1.3,2.7-1.8,4.9c-0.4,1.7-1.6,3.9-0.9,7.1
		c0.6,3,1,4.5,2.2,6.3c1.8,2.7,3.3,3.5,5.3,5.4c2.5,2.3,4.7,4.4,6.9,5.7c2.1,1.2,4.4,1.7,6.5,2.6c2.1,0.8,4.9,1.9,6.9,3
		c1.7,0.9,1.8,2.1,1.8,2.1c-0.1,1.3-1.1,2.2-2.9,2.4c-2.6,0.3-8.8,0-13.7-1.7c-4.8-1.7-5.2-3.1-7.4-3.8c-3.2-1-9.2-5.9-10.3-7.5
		c-3.8-5.5-5.2-13.6-5.4-19.7c-0.1-4,1.4-10.5,1.7-10.5c0.2,0,0.7,0.1,0,0c-1.7-0.3-5.3-0.4-10.2-2.9c-5.7-2.9-6.5-3.6-11.7-6.6
		c-5.3-3-9.2-5.7-14.4-10.6C116.4,264,108.3,257.8,103.1,246.2z"/>
</g>
</svg>
